<svg width="35" height="35" viewBox="0 0 35 35" fill="none" xmlns="http://www.w3.org/2000/svg">
<g clip-path="url(#clip0_71_251)">
<path d="M17.2541 18.0536C17.8378 18.0536 18.311 17.5804 18.311 16.9967C18.311 16.413 17.8378 15.9398 17.2541 15.9398C16.6704 15.9398 16.1972 16.413 16.1972 16.9967C16.1972 17.5804 16.6704 18.0536 17.2541 18.0536Z" fill="#F8CC1D"/>
<path d="M13.566 19.3943C14.1497 19.3943 14.6229 18.9211 14.6229 18.3374C14.6229 17.7537 14.1497 17.2805 13.566 17.2805C12.9823 17.2805 12.5091 17.7537 12.5091 18.3374C12.5091 18.9211 12.9823 19.3943 13.566 19.3943Z" fill="#F8CC1D"/>
<path d="M20.9423 16.7128C21.526 16.7128 21.9991 16.2396 21.9991 15.6559C21.9991 15.0722 21.526 14.599 20.9423 14.599C20.3586 14.599 19.8854 15.0722 19.8854 15.6559C19.8854 16.2396 20.3586 16.7128 20.9423 16.7128Z" fill="#F8CC1D"/>
<path d="M18.495 21.4574C19.0787 21.4574 19.5519 20.9842 19.5519 20.4005C19.5519 19.8168 19.0787 19.3436 18.495 19.3436C17.9113 19.3436 17.4381 19.8168 17.4381 20.4005C17.4381 20.9842 17.9113 21.4574 18.495 21.4574Z" fill="#F8CC1D"/>
<path d="M14.8069 22.802C15.3906 22.802 15.8638 22.3288 15.8638 21.7451C15.8638 21.1614 15.3906 20.6882 14.8069 20.6882C14.2232 20.6882 13.75 21.1614 13.75 21.7451C13.75 22.3288 14.2232 22.802 14.8069 22.802Z" fill="#F8CC1D"/>
<path d="M22.1831 20.1166C22.7668 20.1166 23.24 19.6434 23.24 19.0597C23.24 18.476 22.7668 18.0028 22.1831 18.0028C21.5994 18.0028 21.1262 18.476 21.1262 19.0597C21.1262 19.6434 21.5994 20.1166 22.1831 20.1166Z" fill="black"/>
<path d="M28.1598 20.1703L24.6196 10.4448V10.4437L24.6188 10.4425L24.0191 8.79477C23.9008 8.46975 23.6622 8.20966 23.3472 8.06291C23.0322 7.91538 22.6791 7.90001 22.3545 8.01834L19.5826 9.0272L19.1796 7.92038C19.1074 7.72099 18.8857 7.61726 18.6875 7.69102C18.4877 7.76325 18.3851 7.98415 18.4578 8.18354L18.8604 9.28998L11.0707 12.1252L10.6681 11.0188C10.5955 10.8194 10.3746 10.7168 10.1756 10.789C9.97622 10.8617 9.87326 11.0822 9.94587 11.2816L10.3485 12.3884L7.57663 13.3972C6.90355 13.6423 6.5551 14.3892 6.8002 15.0619L10.9405 26.4375C11.1322 26.9642 11.6316 27.2923 12.1626 27.2923C12.3097 27.2923 12.4592 27.2673 12.6052 27.2139L27.383 21.8354C28.0565 21.5903 28.4045 20.8434 28.1598 20.1703ZM7.54167 14.3942C7.60199 14.2651 7.70764 14.1675 7.83979 14.1195L10.972 12.9793H10.9728L10.9732 12.9789L22.6173 8.7406C22.6757 8.71908 22.7364 8.70871 22.7971 8.70871C22.8739 8.70871 22.9507 8.72562 23.023 8.75942C23.152 8.81936 23.2496 8.92539 23.2976 9.05755L23.7663 10.3453L7.99154 16.0869L7.52284 14.7991C7.47482 14.667 7.48135 14.5233 7.54167 14.3942ZM27.1206 21.1131L12.3431 26.4916C12.0681 26.59 11.763 26.4494 11.6628 26.1747L8.25394 16.8088L24.0287 11.0672L27.438 20.4331C27.5378 20.7082 27.3957 21.0132 27.1206 21.1131Z" fill="black"/>
<path d="M32.5052 8.4978C32.3712 8.4978 32.2409 8.4275 32.1706 8.30264C29.9074 4.2991 25.648 1.8123 21.054 1.8123C17.1323 1.8123 13.4845 3.57761 11.0461 6.65566C10.9143 6.82201 10.6731 6.84928 10.5063 6.71828C10.34 6.58651 10.3119 6.34486 10.4437 6.17851C13.0289 2.91528 16.896 1.04395 21.054 1.04395C25.9246 1.04395 30.4403 3.68057 32.8391 7.9246C32.9436 8.10939 32.8787 8.34374 32.6939 8.44824C32.6343 8.48205 32.5694 8.4978 32.5052 8.4978Z" fill="#F8CC1D"/>
<path d="M13.1672 34.1303C9.00924 34.1303 5.14208 32.2589 2.55694 28.9961C2.42516 28.8297 2.45321 28.5881 2.61956 28.4563C2.78553 28.3246 3.02717 28.3522 3.15933 28.5189C5.59772 31.597 9.24551 33.3623 13.1672 33.3623C17.7608 33.3623 22.0202 30.8751 24.2838 26.8716C24.3883 26.6868 24.6231 26.6223 24.8071 26.7264C24.9915 26.8305 25.0568 27.0652 24.9523 27.2496C22.5531 31.4937 18.0375 34.1303 13.1672 34.1303Z" fill="#F8CC1D"/>
<path d="M34.2833 10.2267H33.9164V9.8594C33.9164 9.64733 33.7446 9.47522 33.5322 9.47522C33.3197 9.47522 33.148 9.64733 33.148 9.8594V10.2267H32.7807C32.5683 10.2267 32.3965 10.3988 32.3965 10.6109C32.3965 10.8229 32.5683 10.995 32.7807 10.995H33.148V11.3623C33.148 11.5744 33.3197 11.7465 33.5322 11.7465C33.7446 11.7465 33.9164 11.5744 33.9164 11.3623V10.995H34.2833C34.4957 10.995 34.6674 10.8229 34.6674 10.6109C34.6674 10.3988 34.4957 10.2267 34.2833 10.2267Z" fill="#F8CC1D"/>
<path d="M10.5448 2.50924C10.2352 2.50924 9.94434 2.38861 9.72536 2.16963C9.50637 1.95103 9.38574 1.65982 9.38574 1.35017C9.38574 1.04053 9.50637 0.749701 9.72536 0.530719C10.1772 0.0789237 10.9125 0.0793079 11.3643 0.530719C11.8161 0.982899 11.8161 1.71783 11.3643 2.16963C11.1453 2.38861 10.8545 2.50924 10.5448 2.50924ZM10.5448 0.960232C10.4449 0.960232 10.3447 0.998266 10.2686 1.07433C10.1948 1.14771 10.1541 1.24606 10.1541 1.35017C10.1541 1.45429 10.1948 1.55264 10.2686 1.62602C10.4207 1.77815 10.6685 1.77853 10.821 1.62602C10.9732 1.47388 10.9732 1.22608 10.821 1.07357C10.7446 0.998266 10.6447 0.960232 10.5448 0.960232Z" fill="#F8CC1D"/>
<path d="M6.31575 24.7125C6.232 24.7125 6.14786 24.6856 6.07717 24.6296C2.81433 22.0444 0.942993 18.1773 0.942993 14.0189C0.942993 9.14865 3.57962 4.63261 7.82365 2.23341C8.00883 2.12892 8.24279 2.19423 8.34729 2.37863C8.4514 2.56342 8.38647 2.79777 8.20207 2.90227C4.19853 5.16547 1.71135 9.42526 1.71135 14.0189C1.71135 17.941 3.47666 21.5888 6.55432 24.0268C6.72067 24.1589 6.74872 24.4006 6.61694 24.5665C6.54126 24.6626 6.42908 24.7125 6.31575 24.7125Z" fill="#F8CC1D"/>
<path d="M28.6566 32.5989C28.5432 32.5989 28.4307 32.549 28.355 32.4533C28.2232 32.287 28.2512 32.0453 28.4176 31.9136C31.4956 29.4752 33.2609 25.8278 33.2609 21.9061C33.2609 17.312 30.7738 13.0523 26.7702 10.7894C26.5858 10.6849 26.5205 10.4506 26.625 10.2658C26.7291 10.081 26.9642 10.0161 27.1483 10.1206C31.3923 12.5198 34.0289 17.0354 34.0289 21.9061C34.0289 26.0637 32.1576 29.9312 28.8947 32.5163C28.8244 32.572 28.7399 32.5989 28.6566 32.5989Z" fill="#F8CC1D"/>
<path d="M26.2228 34.7684C25.9128 34.7684 25.6219 34.6482 25.403 34.4288C24.9515 33.9774 24.9515 33.2421 25.403 32.7899C25.8555 32.3381 26.5897 32.3385 27.0422 32.7895L27.0426 32.7899C27.494 33.2421 27.494 33.9774 27.0422 34.4288C26.8233 34.6482 26.5324 34.7684 26.2228 34.7684ZM26.2228 33.2194C26.1225 33.2194 26.0226 33.2575 25.9466 33.3335C25.7944 33.4857 25.7944 33.7335 25.9466 33.886C26.0945 34.0339 26.3511 34.0339 26.499 33.886C26.6511 33.7339 26.6511 33.4864 26.499 33.3339C26.4229 33.2575 26.3227 33.2194 26.2228 33.2194Z" fill="#F8CC1D"/>
<path d="M2.18004 26.1301H1.81315V25.7628C1.81315 25.5504 1.64104 25.3787 1.42897 25.3787C1.2169 25.3787 1.04479 25.5504 1.04479 25.7628V26.1301H0.677515C0.465447 26.1301 0.293335 26.3018 0.293335 26.5143C0.293335 26.7267 0.465447 26.8985 0.677515 26.8985H1.04479V27.2654C1.04479 27.4778 1.2169 27.6495 1.42897 27.6495C1.64104 27.6495 1.81315 27.4778 1.81315 27.2654V26.8985H2.18004C2.39211 26.8985 2.56422 26.7267 2.56422 26.5143C2.56422 26.3022 2.39211 26.1301 2.18004 26.1301Z" fill="#F8CC1D"/>
</g>
<defs>
<clipPath id="clip0_71_251">
<rect width="35" height="35" fill="white"/>
</clipPath>
</defs>
</svg>
