<svg width="35" height="35" viewBox="0 0 35 35" fill="none" xmlns="http://www.w3.org/2000/svg">
<g clip-path="url(#clip0_71_195)">
<path d="M33.9978 0.192261H26.8321C26.1456 0.192261 25.8018 1.02209 26.2874 1.50769L28.5137 3.73401L15.5207 16.727L10.9709 12.1771L9.75149 10.9577C9.33888 10.5451 8.67002 10.5451 8.25742 10.9577L0.501595 18.7132C0.0889864 19.1258 0.0889864 19.7946 0.501595 20.2073L1.72098 21.4266C2.13359 21.8392 2.80245 21.8392 3.21506 21.4266L9.00426 15.6374L14.7647 21.3978C15.1773 21.8104 15.8461 21.8104 16.2587 21.3978L16.8788 20.7778C16.9107 20.7524 16.9441 20.7297 16.9737 20.7002L31.2268 6.44709L33.4531 8.67341C33.9387 9.15901 34.7685 8.81517 34.7685 8.12864V0.962925C34.7685 0.537254 34.4235 0.192261 33.9978 0.192261Z" fill="black"/>
<path d="M25.4045 14.7143V33.712C25.4045 34.2955 25.8774 34.7684 26.461 34.7684H29.8348C30.4184 34.7684 30.8913 34.2955 30.8913 33.712V9.22742L25.4045 14.7143Z" fill="black"/>
<path d="M18.293 21.8262V33.712C18.293 34.2955 18.7659 34.7685 19.3495 34.7685H22.7233C23.3069 34.7685 23.7798 34.2955 23.7798 33.712V16.3394L18.293 21.8262Z" fill="black"/>
<path d="M15.5119 23.4363C14.7677 23.4363 14.0685 23.1466 13.5422 22.6203L11.181 20.2595V33.712C11.181 34.2955 11.654 34.7685 12.2375 34.7685H15.6114C16.195 34.7685 16.6679 34.2955 16.6679 33.712V23.1831C16.3094 23.3472 15.918 23.4363 15.5119 23.4363Z" fill="black"/>
<path d="M9.00425 18.0824L4.43789 22.6488C4.3234 22.7632 4.19931 22.8647 4.06946 22.9561V33.712C4.06946 34.2955 4.54238 34.7685 5.12595 34.7685H8.49982C9.08339 34.7685 9.55631 34.2955 9.55631 33.712V18.6345L9.00425 18.0824Z" fill="black"/>
</g>
<defs>
<clipPath id="clip0_71_195">
<rect width="35" height="35" fill="white"/>
</clipPath>
</defs>
</svg>
