<svg width="20" height="22" viewBox="0 0 20 22" fill="none" xmlns="http://www.w3.org/2000/svg">
<path d="M1 8.85714L2.87013 17.4286M1 8.85714L7.54545 1M1 8.85714L11.5195 5.7619M1 8.85714L6.84416 16.4762M2.87013 17.4286L13.3896 21M2.87013 17.4286L6.84416 16.4762M13.3896 21L19 14.3333M13.3896 21L6.84416 16.4762M19 14.3333L17.8312 5.04762M19 14.3333L11.5195 5.7619M19 14.3333L6.84416 16.4762M17.8312 5.04762L7.54545 1M17.8312 5.04762L11.5195 5.7619M7.54545 1L11.5195 5.7619M11.5195 5.7619L6.84416 16.4762" stroke="white"/>
</svg>
