<svg width="21" height="21" viewBox="0 0 21 21" fill="none" xmlns="http://www.w3.org/2000/svg">
<path d="M1 2.66667C1 2.08328 1 1.79158 1.11353 1.56876C1.21341 1.37276 1.37276 1.21341 1.56876 1.11353C1.79158 1 2.08328 1 2.66667 1H18.0833C18.6668 1 18.9584 1 19.1812 1.11353C19.3773 1.21341 19.5366 1.37276 19.6365 1.56876C19.75 1.79158 19.75 2.08328 19.75 2.66667V4.47631C19.75 4.73109 19.75 4.85848 19.7212 4.97836C19.6957 5.08466 19.6536 5.18626 19.5965 5.27946C19.5321 5.38458 19.442 5.47467 19.2619 5.65482L12.9465 11.9702C12.7664 12.1503 12.6762 12.2404 12.6119 12.3455C12.5547 12.4387 12.5126 12.5403 12.4871 12.6467C12.4583 12.7666 12.4583 12.894 12.4583 13.1486V15.5833L8.29167 19.75V13.1486C8.29167 12.894 8.29167 12.7666 8.26289 12.6467C8.23736 12.5403 8.19528 12.4387 8.13817 12.3455C8.07375 12.2404 7.98367 12.1503 7.80351 11.9702L1.48816 5.65482C1.308 5.47467 1.21792 5.38458 1.1535 5.27946C1.09639 5.18626 1.0543 5.08466 1.02878 4.97836C1 4.85848 1 4.73109 1 4.47631V2.66667Z" fill="white" fill-opacity="0.5" stroke="white" stroke-linecap="round" stroke-linejoin="round"/>
</svg>
